<?xml version="1.0" encoding="utf-8"?>
<!-- Generator: Adobe Illustrator 22.0.1, SVG Export Plug-In . SVG Version: 6.00 Build 0)  -->
<svg version="1.1" id="Capa_1" xmlns="http://www.w3.org/2000/svg" xmlns:xlink="http://www.w3.org/1999/xlink" x="0px" y="0px"
	 viewBox="0 0 68.6 72" style="enable-background:new 0 0 68.6 72;" xml:space="preserve">
<style type="text/css">
	.st0{fill:#004A99;}
</style>
<path class="st0" d="M6,36C6,20.3,18.7,7.7,34.3,7.7S62.6,20.4,62.6,36c0,15.7-12.7,28.3-28.3,28.3S6,51.7,6,36 M51.8,26
	c-0.2-0.6-4.1-5.9-4.4-6.1c0-0.2-0.1-0.7,0-1.4c0-0.7-0.3-0.4-0.5-0.1s-0.5,0.9-0.5,0.9s-1.9-0.4-3-0.3c0,0-0.1,0.1,0,0.2
	s0.2,0.2,0.1,0.2c-0.1,0-0.8,0-0.8,0c-0.1,0.1-0.1,0.1-0.1,0.1c0.1,0.1,0.3,0.2,0.3,0.2s0,0.1-0.2,0.1s-0.7,0.3-0.8,0.3
	s-0.1,0.1,0,0.2l0.1,0.1c0,0,0.1,0.1-0.1,0.1c-0.2,0-0.3,0-0.6,0.1c0,0-1.4,1.1-2.5,2.4c0,0,0,0.2,0.2,0.2s0.6-0.3,0.7-0.2
	c0.1,0.1-0.9,0.4-0.9,0.4l-0.4,1c-0.4-0.4-0.8-0.8-1-1.1c-1.1-1.1-2.3-2.6-2.9-3.6c-1-1.8-3.8-8.7-3.8-8.7c-0.2-0.3-0.4-0.2-0.4-0.2
	c-0.4,0.1-0.7,0.6-0.8,1.1c-0.2,0.6-0.3,2.4-0.4,2.6c0,0.3-0.3,0.1-0.3,0.1s-0.3-0.2-0.5-0.5c-0.2-0.2-0.4,0-0.4,0
	c-1.2,2.5,0.3,4.6,0.4,5c0,0.1,0.1,0.3-0.2,0.2c-0.2-0.1-0.6-0.3-0.6-0.3c-0.3-0.2-0.3,0.1-0.3,0.1c0,2.5,1.4,3.3,1.7,3.6
	c0.2,0.3-0.1,0.4-0.2,0.4c-0.3,0-0.5,0-0.5,0c-0.4,0-0.3,0.4-0.3,0.4l0.2,1c0.2,0.7-1.5,0.1-2-0.3c-0.9-0.6-3.3-1.9-4.4-2.6
	c-1-0.6-4.1-2.8-4.1-2.8c-0.8-0.5-0.8,0.4-0.8,0.4c0,1.8,1.6,3.9,1.6,3.9c0.2,0.2,0,0.4-0.2,0.2l-0.9-0.5c-0.1-0.1-0.2,0.1-0.2,0.1
	c-0.9,3.3,3.7,4.5,3.7,4.5c0.4,0.1,0.3,0.4,0,0.3c-0.3,0-1.5-0.2-2.2-0.4c0,0-0.2-0.1-0.2,0.1c0,2.8,4.9,3.4,4.9,3.4l1.4,0.2
	c0.2,0,0.3,0.3,0,0.3c-0.9,0.1-2.4-0.1-2.6-0.1c-0.2-0.1-0.1,0.2-0.1,0.2c0.7,1.7,3.5,2.4,3.9,2.4c0.3,0,0.2,0.2,0.1,0.2
	c-0.1,0.1-0.3,0.2-0.4,0.2c-0.1,0.1,0.1,0.2,0.1,0.2c1.8,1.5,3.3,1.2,3.7,1.1c0.4-0.1,0.4,0.3,0.4,0.3c-0.1,0.7,0.4,1,0.8,1
	c-1.4,0.5-3.1,1.6-4.2,3.4c0,0-0.6,1.1-1.8,0.6c-0.5-0.2-6.1-2.2-6.3,5.5c0,0-0.1,2.4-1,4.8c0,0-0.1,0.3,0.2,0.2s1.1-0.6,1.3-0.1
	c0.2,0.6,0.2,2.6,0.2,2.6s0.1,0.5,0.5,0.2s1.1-0.9,2.3-0.5c0,0,0.7,0.3,0.7-0.4c0,0,0-0.9,0.4-0.9c0.4-0.1,0.9,0.6,1.1,0.8
	c0.2,0.2,0.6-0.1,0.5-0.4c-0.1-0.3-2.6-3.8-2.5-6.4c0.1-2.5,1.5-4,3.1-3.8c0,0,0.4,0.2,0.3,0.5c0,0-0.5,3,2.5,5.2c0,0,1.4,1,0.7,2.2
	c0,0-1.1,2.2-1.2,2.5c-0.1,0.3-0.1,0.8,0.1,1.1l0.2,0.3l1.9,2.7c0,0,0,0.4,0.1,0.6c0.1,0.2,0.6,0.2,0.6,0.3c0.1,0.1-0.1,0.8-0.1,0.8
	s-0.1,0.4,0.3,0.6c0.4,0.1,1.4,0.4,1.6,0.3c0.2-0.1,0.4-0.4,0.4-0.4s0.4,0.1,0.4,0.2c0,0.1-0.3,0.9-0.2,1s1.8,0.6,2,0.5
	s0.3-0.4,0.2-0.5c0-0.1-1.2-1.4-1.3-1.7c-0.2-0.4-1.6-3.7-2-4.1c0,0-0.4-0.7-0.3-1.1s0.5-2.2,0.5-2.2s0.2-0.3,0.3-0.6
	c0.2-0.3,0.9-3.8,0.9-3.8s0.2-1.6,2.1-2.2c1.9-0.6,2.9-0.7,7.5-3.8c0,0,0.9-0.6,1.2-0.8c0-0.1,0.4-0.2,1.3,0l2.9-0.9
	c0,0,1.9-0.7,2.2-0.6c0.3,0.1,0.4,0.1,0.4,0.6s-0.8,3.1-0.8,3.1s0,0.2-0.9,0.1c-0.2,0-0.7,0.8-0.7,0.8s0.3,1.6,0.7,1.9
	c0.4,0.3,0.5,0,0.6-0.1s1.4-1.9,1.3-2.1c-0.1-0.2,1,0.1,1,0.1s0.1,0.1,0.3-0.5s0.1-0.9,0.4-1.8c0.3-0.9,0.6-1,0.6-1.5
	s-1-2.5-1.1-2.8s0.1-0.7,0-0.8c0,0-1.3-2.2-4-0.8c0,0-0.4,0.3-0.5-0.2s0.1-0.6-0.7-1.7c-0.8-1.1-1.5-5.2-1.6-5.4
	c-0.1-0.2-0.1-1.2,0-1.5s0.3-0.5,0.7-0.3c0.3,0.2,1.8,0.7,2.2,0.8c0.4,0,0.8,0.8,0.9,0.9c0.1,0.1,0.8,0.4,1.2,0s0.4-0.1,0.6-0.1
	C51.2,27.2,52.1,26.6,51.8,26"/>
</svg>
